<svg width="20" height="15" viewBox="0 0 20 15" fill="none" xmlns="http://www.w3.org/2000/svg">
<path d="M10.8227 14.569L19.8227 1.56901C19.9265 1.41898 19.9873 1.24342 19.9984 1.06132C20.0096 0.879228 19.9708 0.697541 19.8861 0.535937C19.8015 0.374333 19.6742 0.238972 19.5181 0.144506C19.362 0.0500394 19.1831 7.06871e-05 19.0007 8.7062e-06L1.00066 9.493e-06C0.818139 -0.000111616 0.639064 0.0497246 0.482844 0.144117C0.326624 0.23851 0.199218 0.373859 0.114434 0.535496C0.0296491 0.697132 -0.00927982 0.878891 0.00186586 1.06107C0.0130115 1.24326 0.0738067 1.41891 0.177662 1.56901L9.17766 14.569C9.27009 14.7014 9.39314 14.8096 9.53634 14.8843C9.67954 14.959 9.83866 14.998 10.0002 14.998C10.1617 14.998 10.3208 14.959 10.464 14.8843C10.6072 14.8096 10.7302 14.7014 10.8227 14.569Z" fill="#013D71"/>
</svg>
