<svg width="30" height="30" viewBox="0 0 30 30" fill="none" xmlns="http://www.w3.org/2000/svg">
<path d="M1.49963 17.9913H4.49967V28.4989C4.49967 28.897 4.65771 29.2788 4.93902 29.5603C5.22032 29.8419 5.60186 30 5.99969 30H23.9999C24.3978 30 24.7793 29.8419 25.0606 29.5603C25.3419 29.2788 25.5 28.897 25.5 28.4989V17.9913H28.5C28.7899 17.9915 29.0736 17.9076 29.3167 17.7496C29.5598 17.5915 29.7519 17.3663 29.8695 17.1011C29.988 16.8361 30.0269 16.5424 29.9817 16.2557C29.9364 15.9689 29.8088 15.7015 29.6145 15.486L16.1143 0.475094C15.5458 -0.158365 14.4538 -0.158365 13.8853 0.475094L0.385113 15.486C0.191147 15.7016 0.0637899 15.9689 0.0184531 16.2555C-0.0268837 16.5421 0.0117425 16.8356 0.129658 17.1007C0.247573 17.3658 0.439724 17.5909 0.682859 17.749C0.925995 17.9071 1.20969 17.9912 1.49963 17.9913ZM10.4233 17.517C10.4698 17.6596 11.6428 20.9935 14.9998 20.9935C18.4034 20.9935 19.5629 17.5605 19.5749 17.5245L22.4249 18.4566C22.3514 18.6833 20.5544 23.9956 14.9998 23.9956C9.44524 23.9956 7.64821 18.6833 7.57471 18.4581L10.4233 17.517Z" fill="#82D1E2"/>
</svg>
